<svg  version="1.1" id="Layer_1" xmlns="http://www.w3.org/2000/svg" xmlns:xlink="http://www.w3.org/1999/xlink" x="0px" y="0px"
   viewBox="0 0 470 355" xml:space="preserve">

   <g class="welcome">
  <path  fill="#81b3d2" d="M168.5,11.9h7.7L175,56.8h-14.5l-2-18.5l-2,18.5h-14.6l-1.1-44.9h7.6l0.6,37.2h0.8l4.8-37.2h7.6l4.9,37.2h0.8
    L168.5,11.9L168.5,11.9z M200.4,49v7.8h-20.9V11.9h20.9v7.7h-13.3v10.8h10.6v7.7h-10.6V49H200.4L200.4,49z M221.7,49v7.8h-18.3
    V11.9h7.6V49H221.7z M238,40.2l7.7-1.8V52c0,2.6-2.2,4.7-4.7,4.7h-11.5c-2.6,0-4.7-2.2-4.7-4.8V16.6c0-2.6,2.1-4.8,4.7-4.8H241
    c2.5,0,4.7,2.1,4.7,4.8v9.1l-7.7,1.8v-8h-5.5V49h5.5V40.2L238,40.2z M266.4,11.9c2.5,0,4.7,2.1,4.7,4.8V52c0,2.6-2.2,4.7-4.7,4.7
    h-11.5c-2.6,0-4.7-2.2-4.7-4.8V16.6c0-2.6,2.1-4.7,4.7-4.7L266.4,11.9L266.4,11.9z M263.4,19.6h-5.5V49h5.5V19.6z M296.2,11.9h7.6
    v44.9h-7.6V34.7l-3.1,11.4h-7.5l-3-11.4v22.1H275V11.9h7.6l6.8,21.7L296.2,11.9z M328.5,49v7.8h-20.9V11.9h20.9v7.7h-13.3v10.8
    h10.6v7.7h-10.6V49H328.5L328.5,49z"/>
   </g>

   <g class="toTheGorgeous">
  <path fill="#766357" d="M170.7,79.7l-0.2,0.2c-1.4,1.5-3,2.2-4.5,2.2l2.8-4.9c1.8-3.1,0.1-6.1-2.7-6.1c-2.3,0-4.1,0.9-5.8,3.9l-1.5,2.6l-1.2,2.1
    l-0.2,0.2c-2.2,2.5-4.3,4.5-5.6,4.5c-0.7,0-1-0.5-0.3-1.6l6.4-11.2h2.4l0.9-1.4h-2.5l2.8-4.9h-3l-2.8,4.9H153l-0.9,1.4h2.7l-6,10.4
    c-1.3,2.2-0.4,4.3,2,4.3c1.7,0,3.7-1.3,5.5-3.1c0,3.8,5.3,4.6,8.5,0.5h0.7c1.8,0,4.6-1.1,6.1-2.9C171.7,80.3,171.2,79.9,170.7,79.7
    z M164.4,79.9h-0.1c-1,0-1.8,0.8-1.8,1.8c0,0.4,0.1,0.7,0.3,1v0.1c-1.4,2.4-4.8,2-3.1-1.2l2.3-3.9l1.4-2.4c2.1-3.6,5-2.2,3.2,0.9
    L164.4,79.9z"/>
  <path fill="#766357" d="M212.2,79.7l-0.2,0.2c-2.2,2.5-4.9,4.5-7,4.5c-1.8,0-2.9-1.2-1.6-3.6l0.3-0.5c1.9,0.8,5.6,0.4,7.8-3.5l0.4-0.7
    c1.6-2.8,0.1-4.8-2.4-4.8c-2.4,0-4.3,1.3-5.6,3.5l-2.9,5l-0.2,0.2c-2.2,2.5-4.3,4.5-5.6,4.5c-0.7,0-1-0.5-0.3-1.6l4.3-7.6
    c1.3-2.3,0.1-3.9-1.6-3.9c-1.3,0-2.7,0.7-4.2,2.3l4.8-8.3h-3l-8.4,14.5l-0.2,0.2c-2.2,2.5-4.3,4.5-5.6,4.5c-0.7,0-1-0.5-0.3-1.6
    l6.4-11.2h2.4l0.9-1.4h-2.5l2.8-4.9h-3l-2.8,4.9h-2.7l-0.9,1.4h2.7l-6,10.4c-1.3,2.2-0.4,4.3,2,4.3c1.2,0,2.5-0.6,3.8-1.6l-0.8,1.3
    h3l4.5-7.9c4.6-5.8,6.7-5,5.4-2.8l-3.9,6.8c-1.3,2.2-0.4,4.3,2,4.3c1.8,0,3.8-1.4,5.6-3.2c0.1,1.9,1.7,3.2,4.1,3.2
    c3.4,0,6.8-2.6,9.2-5.5C213.1,80.3,212.6,79.9,212.2,79.7z M206.5,75.5c1.7-3,4.8-2.5,3,0.6l-0.4,0.7c-1.4,2.4-3.4,2.4-4.5,2
    L206.5,75.5z"/>
  <path fill="#766357"  d="M321.4,79.7l-0.2,0.2c-1.1,1.3-2.4,2.4-3.6,3.3c0.9-2.8,0.7-7.2,2.6-11.1l-2.2-1.2c-1.2,1.7-3.9,5.6-6.7,8.8l0,0l-0.2,0.2
    c-2.2,2.5-4.3,4.5-5.6,4.5c-0.7,0-1-0.5-0.3-1.6l6.4-11.2h-3l-5.3,9.3c-2.3,2.1-4,3.2-4.6,3c-0.7-0.3,0-1.4,0.4-2.1l5.8-10.2h-3
    l-4.7,8.1l-0.2,0.2c-1.4,1.5-3,2.2-4.5,2.2l2.8-4.9c1.8-3.1,0.1-6.1-2.7-6.1c-2.3,0-4.1,0.9-5.8,3.9l-1.5,2.6l-1.2,2.1l-0.2,0.2
    c-2.2,2.5-4.9,4.5-7,4.5c-1.8,0-2.9-1.2-1.6-3.6l0.3-0.5c1.9,0.8,5.6,0.4,7.8-3.5l0.4-0.7c1.6-2.8,0.1-4.8-2.4-4.8
    c-2.4,0-4.3,1.3-5.6,3.5l-2.9,5l-0.2,0.2c-2.5,2.9-4.6,4.7-7,5.7l6.7-11.5h-1.7c0-1.2-1.3-2.9-3.1-2.9c-1.6,0-3.9,1.3-5.1,3.5
    l-2.9,5l0,0l-0.2,0.2c-2.2,2.5-4.3,4.5-5.6,4.5c-0.7,0-1-0.5-0.3-1.6l3-5.2c1-1.8,0.5-2.9-0.4-4.1l-1.7-2c-0.4-0.5-0.4-1.2,0.2-1.7
    l-1.6-1.7c-1.7,1.5-1.8,3.2-0.8,4.6l0.3,0.3c-1.3,1.9-3.1,4.4-5.1,6.7l0,0l-0.2,0.2c-1.4,1.5-3,2.2-4.5,2.2l2.8-4.9
    c1.8-3.1,0.1-6.1-2.7-6.1c-2.3,0-4.1,0.9-5.8,3.9l-1.5,2.6l-1.2,2.1l-0.2,0.2c-2.5,2.9-4.6,4.7-7,5.7l6.7-11.5H232
    c0-1.2-1.3-2.9-3.1-2.9c-1.6,0-3.9,1.3-5.1,3.5l-4.2,7.3c-1.3,2.2-0.4,4.3,2,4.3c0.8,0,1.8-0.4,2.9-1l-0.8,1.4
    c-4,1.2-6.6,2.9-6.6,5.1c0,2.9,4.4,3.5,6.6-0.2l2.3-3.9c2.4-0.7,4.7-2.2,7.2-4.5c0,3.8,5.3,4.6,8.5,0.5h0.7c1.8,0,4.6-1.1,6.1-2.9
    l0,0c1.4-1.7,2.6-3.2,5-6.4l0.4,0.5c0.4,0.5,0.5,1.1,0.2,1.7l-3.2,5.5c-1.3,2.2-0.4,4.3,2,4.3c1.5,0,3.2-1,4.8-2.4
    c0,1.4,0.9,2.4,2.6,2.4c0.8,0,1.8-0.4,2.9-1l-0.8,1.4c-4,1.2-6.6,2.9-6.6,5.1c0,2.9,4.4,3.5,6.6-0.2l2.3-3.9
    c2.4-0.8,4.8-2.2,7.3-4.6c0.1,1.9,1.6,3.2,4.1,3.2c2.4,0,4.9-1.4,6.9-3.2c-0.1,3.9,5.3,4.7,8.5,0.6h0.7c0.9,0,2.2-0.3,3.3-0.9
    c-0.8,2.1-0.1,3.5,1.6,3.5c1.6,0,3.5-1.5,4.9-2.9c-0.3,1.6,0.7,2.9,2.6,2.9c2.5,0,5.3-2.6,7.8-5.5l0,0c1.7-2,3.2-4.1,4.3-5.5
    c-1.2,3.1-0.5,8.7-3.4,8.7c-1,0-1.4-1.1-1.4-1.1l-1.9,1c0,0,0.5,2.4,3.3,2.4c0.3,0,0.5,0,0.8-0.1h0.1c3.1-0.4,6.1-2.8,8.3-5.4
    C322.3,80.3,321.8,79.8,321.4,79.7z M278.4,75.5c1.7-3,4.8-2.5,3,0.6l-0.4,0.7c-1.4,2.4-3.4,2.4-4.5,2L278.4,75.5z M221.2,91.1
    c-0.6,1.1-1.6,1-1.6,0.1c0-0.8,0.7-1.7,3-2.6L221.2,91.1z M222.6,84.4c-0.7,0-1-0.5-0.3-1.6l4.2-7.3c1.6-2.8,4.8-2.1,3.3,0.6
    l-2.3,4C225.7,83,223.9,84.4,222.6,84.4z M241,79.9h-0.1c-1,0-1.8,0.8-1.8,1.8c0,0.4,0.1,0.7,0.3,1v0.1c-1.4,2.4-4.8,2-3.1-1.2
    l2.3-3.9l1.4-2.4c2.1-3.6,5-2.2,3.2,0.9L241,79.9z M259.8,91.1c-0.6,1.1-1.6,1-1.6,0.1c0-0.8,0.7-1.7,3-2.6L259.8,91.1z
     M261.2,84.4c-0.7,0-1-0.5-0.3-1.6l4.2-7.3c1.6-2.8,4.8-2.1,3.3,0.6l-2.3,4C264.3,83,262.5,84.4,261.2,84.4z M290.7,79.9
    L290.7,79.9c-1.1,0-1.9,0.8-1.9,1.8c0,0.4,0.1,0.7,0.3,1v0.1c-1.4,2.4-4.8,2-3.1-1.2l2.3-3.9l1.4-2.4c2.1-3.6,5-2.2,3.2,0.9
    L290.7,79.9z"/>
  <rect fill="#766357" x="106.7" y="76.5" width="28.9" height="2"/>
  <rect fill="#766357" x="333.7" y="76.5" width="28.9" height="2"/>
   </g>

   <g class="sedona">
  <path fill="#ffffff" d="M50.7,154.8c-3.6-3-8.1-5-12.9-5c-3.6,0-8.3,2.1-8.3,6.3c0,4.4,5.3,6.1,8.6,7.1l5,1.5
    c10.4,3.1,18.5,8.3,18.5,20.4c0,7.4-1.8,15.1-7.7,20.2c-5.9,5-13.7,7-21.2,7c-9.4,0-18.7-3.2-26.3-8.5l8.3-15.7
    c4.9,4.3,10.6,7.7,17.3,7.7c4.6,0,9.4-2.3,9.4-7.5c0-5.5-7.6-7.3-11.8-8.5c-12.2-3.5-20.2-6.6-20.2-21.1
    c0-15.2,10.8-25.1,25.8-25.1c7.5,0,16.8,2.4,23.4,6.2L50.7,154.8z"/>
  <path  fill="#ffffff" d="M98,152v12.5h21.9V181H98v12.9h23.1v16.5H78.6v-74.8h42.5v16.5L98,152L98,152z"/>
  <path  fill="#ffffff" d="M135.6,135.5h27.6c20.8,0,38,16.4,38,37.4s-17.3,37.4-38,37.4h-27.6V135.5z M155.1,193.9h4.4c11.6,0,21.5-6.4,21.5-20.9
    c0-13.4-8.8-20.9-21.3-20.9h-4.6V193.9z"/>
  <path  fill="#ffffff" d="M293.1,171.5c0,24.2-17.4,41.3-41.4,41.3s-41.4-17.1-41.4-41.3c0-22.6,19.9-38.5,41.4-38.5S293.1,148.9,293.1,171.5z
     M230.5,171.6c0,12.9,9.5,22.3,21.1,22.3c11.6,0,21.1-9.4,21.1-22.3c0-10.3-9.5-19.8-21.1-19.8C240,151.8,230.5,161.3,230.5,171.6z
    "/>
  <path  fill="#ffffff" d="M303.4,135.5h19.5l35.6,45.8h0.2v-45.8h19.5v74.8h-19.5l-35.6-45.8h-0.2v45.9h-19.5V135.5z"/>
  <path fill="#ffffff" d="M413.5,197.3l-5.2,13h-20.6l28.8-74.8h21.2l28.2,74.8h-20.7l-4.9-13H413.5z M427.1,158.6h-0.2l-8,23.8h16.2L427.1,158.6z"
    />
   </g>

   <g class="becauseGrandConyon">
  <g>
    <path fill="#ffffff" d="M127.5,283.5c7.7-2.6,8.2-12.2,0.7-12.2c-2.1,0-4.6,1.5-6.3,4.4l-10.2,17.7c-0.5,0.8-0.9,1.5-1.5,2.2
      c-2.6-3.6-1.9-9,1.8-11.4l-1.5-1.9c-7.9,5.1-5.6,19.7,7.7,19.7C129.6,302,134.8,288.4,127.5,283.5z M118.2,299
      c-2.3,0-4-0.5-5.5-1.3c0.7-0.8,1.3-1.7,1.9-2.7l6.4-11.1l1,0.1C130.9,286,127.3,299,118.2,299z M122.2,281.8l3.1-5.3
      c2.8-4.8,6.3-2,4.4,1.6C128.3,280.8,126.1,281.7,122.2,281.8z"/>
    <path fill="#ffffff" d="M159.6,295.8c-0.6,2.2,0.6,4.1,3.1,4.1c1.5,0,3.4-1,5.3-2.5c0.2,1.5,1.3,2.5,3.3,2.5s4.2-1.4,6.4-3.4
      c-0.4,2,0.5,3.4,2.4,3.4c2.1,0,4.4-1.9,6.2-3.6c-0.4,2,0.8,3.6,3.2,3.6c3.1,0,6.7-3.4,9.9-7c0-0.1-0.1-0.1-0.1-0.2
      c2.1-2.4,3.9-5,5.3-6.8c-1.5,3.9-0.7,11-4.3,11c-1.3,0-1.8-1.4-1.8-1.4l-2.4,1.2c0,0,0.7,3.1,4.2,3.1c0.4,0,0.7,0,1.1-0.1h0.1
      c2.8-0.4,5.6-2.1,7.9-4.2c0.1,2.5,2,4.3,5.1,4.3c4.3,0,8.6-3.4,11.7-7c-0.3-0.5-0.9-1.1-1.4-1.3l-0.3,0.3
      c-2.7,3.2-6.2,5.7-8.9,5.7c-2.3,0-3.7-1.5-2-4.5l0.4-0.7c2.4,1,7,0.5,9.9-4.4l0.5-0.9c2-3.5,0.1-6.1-3-6.1s-5.5,1.6-7.1,4.4
      l-3.7,6.3h-0.1l-0.3,0.3c-1.4,1.6-3.1,3.1-4.6,4.1c1.2-3.6,0.9-9.2,3.3-14l-2.8-1.5c-1.6,2.2-5,7.1-8.4,11.1l0.1,0.1l-0.1,0.2
      c-2.7,3.2-5.4,5.7-7.1,5.7c-0.8,0-1.3-0.6-0.4-2.1l8.1-14.2h-3.7l-6.7,11.8c-2.9,2.6-5.1,4.1-5.8,3.8c-0.9-0.4,0-1.8,0.5-2.6
      l7.4-12.9h-3.8l-6,10.4c-0.1-0.1-0.2-0.1-0.3-0.2l-0.3,0.3c-2.7,3.2-5.4,5.7-7.1,5.7c-0.8,0-1.3-0.6-0.4-2.1l6.1-10.7H176
      c0.1-1.6-1.5-3.8-4-3.8c-2,0-4.9,1.6-6.5,4.4l-3.9,6.5c-0.2-0.2-0.4-0.3-0.6-0.4l-0.3,0.3c-2.7,3.2-6.2,5.7-8.9,5.7
      c-2.3,0-3.7-1.5-2-4.5l3.9-6.8c2.2-3.8,6.1-3.1,3.8,0.8l-0.5,0.9h3.1l0.5-0.9c2-3.5,0.1-6.1-3-6.1s-5.5,1.6-7.1,4.4l-3.8,6.5
      c-0.1-0.1-0.2-0.1-0.3-0.2l-0.3,0.3c-2.7,3.2-6.2,5.7-8.9,5.7c-2.3,0-3.7-1.5-2-4.5l0.4-0.7c2.4,1,7,0.5,9.9-4.4l0.5-0.9
      c2-3.5,0.1-6.1-3-6.1s-5.5,1.6-7.1,4.4l-4,6.8c-2.4,4-0.3,7.8,4.2,7.8c3.3,0,6.7-2,9.4-4.6c-0.1,2.6,1.9,4.6,5.1,4.6
      C153.9,299.8,157,298.1,159.6,295.8z M217.6,286.2c2.2-3.8,6.1-3.1,3.8,0.8l-0.5,0.9c-1.8,3.1-4.3,3-5.7,2.5L217.6,286.2z
       M163.4,295.4l5.3-9.2c2-3.5,6.1-2.6,4.2,0.8l-3,5.2c-2.3,3.6-4.6,5.3-6.1,5.3C163,297.5,162.6,296.9,163.4,295.4z M139.3,286.2
      c2.2-3.8,6.1-3.1,3.8,0.8l-0.5,0.9c-1.8,3.1-4.3,3-5.7,2.5L139.3,286.2z"/>
    <path fill="#ffffff" d="M267.8,299.8c4.3,0,8.6-3.4,11.7-7c-0.3-0.5-0.9-1.1-1.4-1.3l-0.3,0.3c-2.7,3.2-6.2,5.7-8.9,5.7c-2.3,0-3.7-1.5-2-4.5
      l0.4-0.7c2.4,1,7,0.5,9.9-4.4l0.5-0.9c2-3.5,0.1-6.1-3-6.1s-5.5,1.6-7.1,4.4l-3.7,6.3c0,0-0.1,0-0.1-0.1l-0.3,0.3
      c-2.7,3.2-5.4,5.7-7.1,5.7c-0.8,0-1.3-0.6-0.4-2.1l5.5-9.6c1.6-2.9,0.1-5-2-5c-1.6,0-3.4,0.9-5.3,2.9l6.1-10.5h-3.8l-10.7,18.6
      c-0.1-0.1-0.3-0.2-0.4-0.3l-0.3,0.3c-2.7,3.2-5.4,5.7-7.1,5.7c-0.8,0-1.3-0.6-0.4-2.1l8.1-14.2h3.1l1.1-1.8h-3.1l3.6-6.2h-3.8
      l-3.6,6.2h-3.4l-1.1,1.8h3.5l-7.6,13.2c-1.6,2.8-0.5,5.4,2.6,5.4c1.9,0,3.9-1.2,6-3l-1.5,2.6h3.8l5.8-10c5.8-7.3,8.4-6.4,6.8-3.6
      l-4.9,8.6c-1.6,2.8-0.5,5.4,2.6,5.4c2.3,0,4.9-1.8,7.3-4.2C262.8,298.1,264.7,299.8,267.8,299.8z M270.9,286.2
      c2.2-3.8,6.1-3.1,3.8,0.8l-0.5,0.9c-1.8,3.1-4.3,3-5.7,2.5L270.9,286.2z"/>
    <path  fill="#ffffff" d="M382.9,291.5l-0.3,0.3c-2.7,3.2-5.4,5.7-7.1,5.7c-0.8,0-1.3-0.6-0.4-2.1l12.8-22.2h-3.8l-5.5,9.7c-0.7-1.1-1.9-2-3.5-2
      c-2,0-4.9,1.6-6.5,4.4l-3.7,6.4c-0.1,0-0.2-0.1-0.2-0.1l-0.3,0.3c-2.7,3.2-5.4,5.7-7.1,5.7c-0.8,0-1.3-0.6-0.4-2.1l5.5-9.6
      c1.6-2.9,0.1-5-2-5c-1.6,0-3.4,0.9-5.3,2.8l1.4-2.5h-3.8l-6.1,10.5c-0.1-0.1-0.2-0.2-0.4-0.2l-0.3,0.3c-2.7,3.2-5.4,5.7-7.1,5.7
      c-0.8,0-1.3-0.6-0.4-2.1l6.1-10.7h-2.2c0.1-1.6-1.5-3.8-4-3.8c-2,0-4.9,1.6-6.5,4.4l-3.7,6.3l-0.2,0.2c-2.7,3.2-5.4,5.7-7.1,5.7
      c-0.8,0-1.3-0.6-0.4-2.1l3.8-6.6c1.3-2.3,0.7-3.6-0.5-5.1l-2.1-2.6c-0.5-0.7-0.5-1.5,0.2-2.2l-2-2.2c-2.2,1.9-2.3,4.1-1,5.8
      l0.3,0.4c-1.7,2.4-3.9,5.6-6.4,8.5c0.1,0.1,0.2,0.2,0.3,0.3c-3.1,3.6-5.8,5.9-8.8,7.2l4.8-8.2h-3.8l-0.4,0.7
      c-2,3.5-4.3,6.1-7.3,6.1c-2.6,0-3.1-2.6-0.8-6.5l1.1-1.9c0.7,0.1,1.4,0.2,2.2,0.2c13.5,0,20-18.1,8.1-18.1c-2.1,0-4.6,1.5-6.3,4.4
      l-5.9,10.2c-2.2-1.2-3.4-3.3-3.4-5.4c0-1.8,0.8-3.5,2.4-4.8l-1.2-2.2c-2.7,1.9-3.9,4.5-3.9,7.1c0,3,1.7,5.9,4.8,7.5l-1.1,2
      c-2.7,4.6-2.2,9.7,3.2,9.7c1.6,0,3-0.5,4.1-1.2l-1,1.7c-5.1,1.6-8.3,3.6-8.3,6.5c0,3.6,5.6,4.4,8.3-0.3l2.9-5
      c3.9-1.2,7.8-3.9,12-8.8c-0.1-0.1-0.1-0.2-0.2-0.4c1.7-2,3.1-3.9,6-7.8l0.5,0.6c0.5,0.6,0.7,1.4,0.2,2.2l-4,7
      c-1.6,2.8-0.5,5.4,2.6,5.4c1.9,0,4-1.2,6-3c0,1.7,1.1,3,3.3,3c1.5,0,3.4-1,5.3-2.5c0.2,1.5,1.4,2.5,3.3,2.5c1.8,0,3.8-1.1,5.7-2.8
      l-1.4,2.4h3.8l5.8-10.1c5.8-7.3,8.4-6.3,6.7-3.5l-4.9,8.6c-1.6,2.8-0.5,5.4,2.6,5.4c2,0,4.2-1.4,6.4-3.3c-0.2,1.9,1,3.3,3.3,3.3
      c1.5,0,3.4-1,5.3-2.5c0.2,1.5,1.4,2.5,3.3,2.5c3.1,0,6.7-3.4,9.9-7C384,292.3,383.4,291.8,382.9,291.5z M304.9,277.4
      c1.1-1.9,2.4-2.8,3.4-2.8c6,0,1.8,12.3-8.1,12.3h-0.8L304.9,277.4z M296.8,306c-0.8,1.4-2.1,1.2-2.1,0.2s0.9-2.1,3.8-3.2
      L296.8,306z M336.5,292.2c-2.3,3.6-4.6,5.3-6.1,5.3c-0.8,0-1.3-0.6-0.4-2.1l5.3-9.2c2-3.5,6.1-2.6,4.2,0.8L336.5,292.2z
       M373.2,292c-2.3,3.8-4.6,5.5-6.2,5.5c-0.8,0-1.3-0.6-0.4-2.1l5.3-9.2c2-3.5,6.1-2.6,4.2,0.8l0,0L373.2,292z"/>
    <path  fill="#ffffff" d="M256.2,327.5l-0.3,0.3c-2.7,3.2-5.4,5.7-7.1,5.7c-0.8,0-1.3-0.6-0.4-2.1l5.5-9.6c1.6-2.9,0.1-5-2-5
      c-1.6,0-3.4,0.9-5.3,2.8l1.4-2.5h-3.8l-6.1,10.6c-0.2-0.1-0.3-0.2-0.5-0.3l-0.3,0.3c-1.7,1.9-3.8,2.8-5.7,2.8l3.6-6.2
      c2.3-4,0.2-7.7-3.4-7.7c-2.9,0-5.2,1.2-7.4,5l-1.8,3.3l-1.6,2.8c-0.1-0.1-0.2-0.1-0.3-0.2l-0.3,0.3c-3.1,3.6-5.8,5.9-8.8,7.2
      l10.4-17.8h-3.8l-6.7,11.7c-2.9,2.7-5.2,4.2-5.9,3.9c-0.9-0.4,0-1.8,0.5-2.6l7.4-12.9h-3.9l-6.1,10.5c-0.1-0.1-0.2-0.1-0.3-0.2
      l-0.3,0.3c-2.7,3.2-5.4,5.7-7.1,5.7c-0.8,0-1.3-0.6-0.4-2.1l5.5-9.6c1.6-2.9,0.1-5-2-5c-1.6,0-3.4,0.9-5.3,2.8l1.4-2.5h-3.8
      l-6.1,10.5c-0.1-0.1-0.2-0.2-0.4-0.2l-0.3,0.3c-2.7,3.2-5.4,5.7-7.1,5.7c-0.8,0-1.3-0.6-0.4-2.1l6.1-10.7h-2.2
      c0.1-1.6-1.5-3.8-4-3.8c-2,0-4.9,1.6-6.5,4.4l-3.9,6.8c-0.3-0.2-0.6-0.4-0.8-0.5l-0.3,0.3c-2.7,3.2-6.1,5.7-9.8,5.7
      c-2.6,0-4.2-2.6-1.9-6.5l1.1-1.9c0.7,0.1,1.4,0.2,2.2,0.2c4,0,8.6-2.1,11.6-7.3c1.1-1.9,1.5-3.6,1.5-5.1c0-3.4-2.2-5.7-5-5.7
      c-2.1,0-4.6,1.5-6.3,4.4l-5.9,10.2c-2.2-1.2-3.4-3.3-3.4-5.4c0-1.8,0.8-3.5,2.4-4.8l-1.2-2.2c-2.7,1.9-3.9,4.5-3.9,7.1
      c0,3,1.7,5.9,4.8,7.5l-1.1,2c-2.7,4.6-1.1,9.7,4.3,9.7c4.2,0,7.4-1.9,10-4.4c-0.8,2.4,0.4,4.4,3.1,4.4c1.5,0,3.4-1,5.3-2.5
      c0.2,1.5,1.3,2.5,3.3,2.5c1.8,0,3.8-1.1,5.7-2.8l-1.4,2.4h3.8l5.8-10.1c5.8-7.3,8.4-6.3,6.7-3.5l-4.9,8.6
      c-1.6,2.8-0.5,5.4,2.6,5.4c2,0,4.3-1.4,6.5-3.4c-0.5,2.1,0.5,3.4,2.4,3.4c1.8,0,3.9-1.5,5.6-3.1l-2.1,3.6
      c-5.1,1.5-8.4,3.6-8.4,6.5c0,3.6,5.6,4.4,8.3-0.3l2.9-5c3.2-1,6.3-3,9.6-6.2c-0.5,5.3,6.5,6.5,10.8,1.1h0.8c1.4,0,3.3-0.5,5-1.5
      l-2.5,4.4h3.8l5.8-10.1c5.8-7.3,8.4-6.3,6.7-3.5l-4.9,8.6c-1.6,2.8-0.5,5.4,2.6,5.4s6.7-3.4,9.9-7
      C257.3,328.3,256.7,327.8,256.2,327.5z M161.8,313.4c1.1-1.9,2.4-2.8,3.4-2.8c1.4,0,2.1,0.9,2.1,2.3c0,3.5-4.3,9.9-10.2,9.9h-0.8
      L161.8,313.4z M175.1,328.2c-2.3,3.6-4.6,5.3-6.1,5.3c-0.8,0-1.3-0.6-0.4-2.1l5.3-9.2c2-3.5,6.1-2.6,4.2,0.8L175.1,328.2z
       M204,342c-0.8,1.4-2.1,1.2-2.1,0.2s0.9-2.1,3.8-3.2L204,342z M229.5,327.8h-0.2c-1.2,0-2.2,1-2.2,2.3c0,0.5,0.1,0.9,0.4,1.3v0.1
      c-1.8,3.1-6.1,2.5-3.9-1.5l2.9-5l1.8-3.1c2.7-4.5,6.3-2.7,4,1.2L229.5,327.8z"/>
    <path  fill="#ffffff" d="M344.1,328.8c-0.2-0.6-0.9-1.2-1.4-1.3l-0.3,0.3c-1.4,1.6-3.1,3.1-4.6,4.1c1.2-3.6,0.9-9.2,3.3-14l-2.8-1.5
      c-1.6,2.2-5,7.1-8.4,11.1l0,0l0,0l-0.3,0.3c-2.7,3.2-5.4,5.7-7.1,5.7c-0.8,0-1.6-0.8-1.6-2.6v-1.6c2.7,0.3,5.5-1.4,7.3-4.5l1-1.8
      c3.5-6.1-2.2-8.1-6.1-4.5l5.4-9.4h-3.9l-10.8,18.8c-0.2-0.2-0.5-0.4-0.7-0.5l-0.3,0.3c-2.7,3.2-6.2,5.7-8.9,5.7
      c-2.3,0-3.7-1.5-2-4.5l3.9-6.8c2.2-3.8,6.1-3.1,3.8,0.8l-0.5,0.9h3.1l0.5-0.9c2-3.5,0.1-6.1-3-6.1s-5.5,1.6-7.1,4.4l-3.7,6.4
      c-0.1,0-0.2-0.1-0.2-0.1l-0.3,0.3c-2.7,3.2-5.4,5.7-7.1,5.7c-0.8,0-1.3-0.6-0.4-2.1l8.1-14.2h-3.8l-6.7,11.8
      c-2.9,2.6-5.1,4.1-5.8,3.8c-0.9-0.4,0-1.8,0.5-2.6l7.4-12.9h-3.8l-7.4,12.7c-0.8,0.7-1.7,1.4-2.5,2c1.2-3.6,0.9-9.2,3.3-14
      l-2.8-1.5c-1.6,2.2-10.3,13.8-13.7,17.8c0.3,0.5,0.9,0.9,1.4,1.3c2.2-2.5,9.4-11.8,10.7-13.6c-1.5,3.9-0.7,11-4.3,11
      c-1.3,0-1.8-1.4-1.8-1.4l-2.4,1.2c0,0,0.7,3.1,4.2,3.1c0.4,0,0.7,0,1.1-0.1h0.1c1.9-0.3,3.8-1.1,5.6-2.4c0,1.5,0.9,2.5,2.5,2.5
      c2.1,0,4.4-1.9,6.2-3.6c-0.4,2,0.8,3.6,3.2,3.6c2.4,0,5-1.9,7.5-4.4c0,2.5,2,4.4,5.1,4.4s6.1-1.7,8.8-4l-2.1,3.7h3.8l4.3-7.5v3
      c0,3.2,0.6,4.9,3.7,4.9s6.7-3.4,9.9-7l0,0l0,0c2.2-2.5,4-5.1,5.4-6.9c-1.5,3.9-0.7,11-4.3,11c-1.3,0-1.8-1.4-1.8-1.4l-2.4,1.2
      c0,0,0.7,3.1,4.2,3.1c0.4,0,0.7,0,1.1-0.1h0.1C337.4,335.2,341.2,332.2,344.1,328.8z M318.9,325.9l1.1-1.9c4.4-6.1,7.4-4.4,6-2.1
      l-1.8,3.1C323,327,319.7,328.3,318.9,325.9z"/>
    <path  fill="#ffffff" d="M343.9,331.4c-1.2,0-2.2,1-2.2,2.2s0.9,2.2,2.2,2.2c1.2,0,2.2-0.9,2.2-2.2C346.1,332.4,345.2,331.4,343.9,331.4z"/>
    <polygon  fill="#ffffff" points="344.1,329.9 347.9,329.9 359.8,309.2 356,309.2 		"/>
  </g>
  <g>
    <path  fill="#ffffff" d="M99.9,273.4c0,0.3-0.1,0.6-0.2,0.9c-0.1,0.3-0.3,0.6-0.5,0.8c-0.2,0.2-0.5,0.4-0.8,0.6c-0.3,0.1-0.7,0.2-1.1,0.2
      c-0.5,0-0.9-0.1-1.3-0.3c-0.4-0.2-0.8-0.4-1.1-0.7c-0.2-0.3-0.4-0.6-0.6-1c-0.1-0.4-0.2-0.8-0.2-1.3c0-0.9,0.2-1.6,0.5-2.4
      c0.3-0.7,0.7-1.4,1.3-1.9c0.2-0.2,0.5-0.5,0.8-0.7c0.3-0.2,0.6-0.4,0.9-0.5s0.5-0.3,0.7-0.4s0.3-0.1,0.4-0.2l1.4,2
      c-0.2,0.1-0.5,0.2-0.8,0.4c-0.3,0.1-0.6,0.3-0.9,0.5c-0.3,0.2-0.5,0.5-0.7,0.8c-0.2,0.3-0.3,0.6-0.3,1c0.7,0,1.2,0.2,1.7,0.6
      C99.6,272.1,99.9,272.6,99.9,273.4z M107.7,273.4c0,0.3-0.1,0.6-0.2,0.9c-0.1,0.3-0.3,0.6-0.5,0.8c-0.2,0.2-0.5,0.4-0.8,0.6
      c-0.3,0.1-0.7,0.2-1.1,0.2c-0.5,0-0.9-0.1-1.3-0.3c-0.4-0.2-0.8-0.4-1.1-0.7c-0.2-0.3-0.4-0.6-0.6-1c-0.1-0.4-0.2-0.8-0.2-1.3
      c0-0.9,0.2-1.6,0.5-2.4c0.3-0.7,0.7-1.4,1.3-1.9c0.2-0.2,0.5-0.5,0.8-0.7c0.3-0.2,0.6-0.4,0.9-0.5s0.5-0.3,0.7-0.4
      s0.3-0.1,0.4-0.2l1.4,2c-0.2,0.1-0.5,0.2-0.8,0.4c-0.3,0.1-0.6,0.3-0.9,0.5c-0.3,0.2-0.5,0.5-0.7,0.8c-0.2,0.3-0.3,0.6-0.3,1
      c0.7,0,1.2,0.2,1.7,0.6C107.5,272.1,107.7,272.6,107.7,273.4z"/>
  </g>
  <g>
    <path  fill="#ffffff" d="M372.9,332.3c0-0.3,0.1-0.6,0.2-0.9s0.3-0.6,0.5-0.8c0.2-0.2,0.5-0.4,0.8-0.6c0.3-0.1,0.7-0.2,1.1-0.2
      c0.5,0,0.9,0.1,1.3,0.3c0.4,0.2,0.8,0.4,1.1,0.7c0.2,0.3,0.4,0.6,0.6,1c0.1,0.4,0.2,0.8,0.2,1.3c0,0.9-0.2,1.6-0.5,2.4
      c-0.3,0.7-0.7,1.4-1.3,1.9c-0.2,0.2-0.5,0.5-0.8,0.7s-0.6,0.4-0.9,0.5s-0.5,0.3-0.7,0.4s-0.3,0.1-0.4,0.2l-1.4-2
      c0.2-0.1,0.5-0.2,0.8-0.4s0.6-0.3,0.9-0.5s0.5-0.5,0.7-0.8s0.3-0.6,0.3-1c-0.7,0-1.2-0.2-1.7-0.6
      C373.1,333.6,372.9,333,372.9,332.3z M365,332.3c0-0.3,0.1-0.6,0.2-0.9s0.3-0.6,0.5-0.8s0.5-0.4,0.8-0.6c0.3-0.1,0.7-0.2,1.1-0.2
      c0.5,0,0.9,0.1,1.3,0.3c0.4,0.2,0.8,0.4,1.1,0.7c0.2,0.3,0.4,0.6,0.6,1c0.1,0.4,0.2,0.8,0.2,1.3c0,0.9-0.2,1.6-0.5,2.4
      c-0.3,0.7-0.7,1.4-1.3,1.9c-0.2,0.2-0.5,0.5-0.8,0.7s-0.6,0.4-0.9,0.5s-0.5,0.3-0.7,0.4s-0.3,0.1-0.4,0.2l-1.4-2
      c0.2-0.1,0.5-0.2,0.8-0.4c0.3-0.1,0.6-0.3,0.9-0.5s0.5-0.5,0.7-0.8s0.3-0.6,0.3-1c-0.7,0-1.2-0.2-1.7-0.6
      C365.3,333.6,365,333,365,332.3z"/>
  </g>
   </g>

</svg>
