<?xml version="1.0" encoding="utf-8"?>
<!-- Generator: Adobe Illustrator 22.0.0, SVG Export Plug-In . SVG Version: 6.00 Build 0)  -->
<svg version="1.1" id="Layer_1" xmlns="http://www.w3.org/2000/svg" xmlns:xlink="http://www.w3.org/1999/xlink" x="0px" y="0px"
	 viewBox="0 0 230 45" style="enable-background:new 0 0 230 45;" xml:space="preserve">
<style type="text/css">
	.st0{fill:#FFFFFF;}
</style>
<path class="st0" d="M25,12.6c-1.7-1.6-3.8-2.7-6.1-2.7c-1.7,0-3.9,1.1-3.9,3.4c0,2.4,2.5,3.3,4,3.9l2.4,0.8
	c4.9,1.7,8.7,4.5,8.7,11.1c0,4-0.8,8.2-3.6,11c-2.8,2.7-6.4,3.8-10,3.8c-4.4,0-8.8-1.7-12.4-4.6L8,30.8c2.3,2.3,5,4.2,8.1,4.2
	c2.2,0,4.4-1.3,4.4-4.1c0-3-3.6-4-5.6-4.6c-5.7-1.9-9.5-3.6-9.5-11.5C5.5,6.4,10.6,1,17.7,1c3.5,0,7.9,1.3,11,3.4L25,12.6z"/>
<path class="st0" d="M47.2,11.1v6.8h10.3v9H47.2v7h10.9v9h-20V2.1h20v9L47.2,11.1L47.2,11.1z"/>
<path class="st0" d="M64.9,2.1h13c9.8,0,17.9,9,17.9,20.4s-8.1,20.4-17.9,20.4h-13V2.1z M74.1,34h2.1c5.5,0,10.1-3.5,10.1-11.4
	c0-7.3-4.1-11.4-10-11.4h-2.2L74.1,34L74.1,34z"/>
<path class="st0" d="M139,21.7c0,13.2-8.2,22.6-19.5,22.6S100,35,100,21.7c0-12.3,9.4-21,19.5-21S139,9.4,139,21.7z M109.5,21.8
	c0,7,4.5,12.2,9.9,12.2c5.5,0,9.9-5.1,9.9-12.2c0-5.6-4.5-10.8-9.9-10.8C114,11,109.5,16.2,109.5,21.8z"/>
<path class="st0" d="M143.8,2.1h9.2l16.7,25h0.1v-25h9.2v40.9h-9.2l-16.7-25H153V43h-9.2V2.1z"/>
<path class="st0" d="M195.6,35.8l-2.4,7.1h-9.7L197,2.1h10l13.3,40.9h-9.7l-2.3-7.1H195.6z M202,14.7L202,14.7l-3.9,13h7.6L202,14.7
	z"/>
</svg>
